<svg width="156" height="41" viewBox="0 0 156 41" fill="none" xmlns="http://www.w3.org/2000/svg">
<path d="M31.4596 29.5794C29.2134 32.3762 26.0103 34.2412 22.4692 34.814C18.9281 35.3867 15.3004 34.6265 12.2871 32.6804C9.27386 30.7342 7.08894 27.7401 6.1546 24.2768C5.22026 20.8135 5.60283 17.1268 7.22838 13.9292C8.85393 10.7315 11.6071 8.24989 14.9557 6.96389C18.3044 5.67788 22.0109 5.67878 25.359 6.96642C28.707 8.25405 31.459 10.737 33.0829 13.9355C34.7069 17.1339 35.0877 20.8208 34.1517 24.2836L28.1187 22.6529C28.6513 20.6825 28.4346 18.5847 27.5106 16.7648C26.5865 14.9449 21.171 21.8161 19.266 21.0834C17.361 20.3507 19.1016 12.0662 17.1962 12.798C15.2908 13.5297 13.7243 14.9417 12.7994 16.7612C11.8744 18.5807 11.6568 20.6784 12.1884 22.649C12.72 24.6196 13.9632 26.3232 15.6778 27.4306C17.3923 28.538 19.4565 28.9705 21.4714 28.6446C23.4863 28.3188 25.3088 27.2576 26.5869 25.6662L31.4596 29.5794Z" fill="white"/>
<path d="M54.0563 28.7534C52.9161 28.7534 51.8534 28.5704 50.8681 28.2044C49.8969 27.8244 49.0524 27.2895 48.3345 26.5998C47.6167 25.9101 47.0536 25.1007 46.6454 24.1717C46.2513 23.2428 46.0543 22.2223 46.0543 21.1103C46.0543 19.9983 46.2513 18.9778 46.6454 18.0488C47.0536 17.1199 47.6167 16.3105 48.3345 15.6208C49.0664 14.9311 49.918 14.4033 50.8892 14.0373C51.8605 13.6572 52.9232 13.4672 54.0774 13.4672C55.3583 13.4672 56.5125 13.6924 57.54 14.1429C58.5816 14.5792 59.4543 15.2267 60.158 16.0853L57.9622 18.1122C57.4555 17.5351 56.8925 17.1058 56.2732 16.8243C55.6538 16.5287 54.9782 16.3809 54.2463 16.3809C53.5566 16.3809 52.9232 16.4935 52.3461 16.7187C51.769 16.9439 51.2693 17.2676 50.847 17.6899C50.4247 18.1122 50.094 18.6119 49.8547 19.189C49.6295 19.7661 49.5169 20.4065 49.5169 21.1103C49.5169 21.8141 49.6295 22.4545 49.8547 23.0316C50.094 23.6087 50.4247 24.1084 50.847 24.5307C51.2693 24.9529 51.769 25.2767 52.3461 25.5019C52.9232 25.7271 53.5566 25.8397 54.2463 25.8397C54.9782 25.8397 55.6538 25.6989 56.2732 25.4174C56.8925 25.1218 57.4555 24.6785 57.9622 24.0873L60.158 26.1142C59.4543 26.9728 58.5816 27.6273 57.54 28.0777C56.5125 28.5282 55.3512 28.7534 54.0563 28.7534ZM62.2356 28.5V17.141H65.3815V20.3502L64.9381 19.4212C65.2759 18.6189 65.8178 18.0137 66.5638 17.6055C67.3098 17.1832 68.2177 16.9721 69.2875 16.9721V20.0124C69.1467 19.9983 69.02 19.9913 68.9074 19.9913C68.7948 19.9772 68.6752 19.9702 68.5485 19.9702C67.6477 19.9702 66.9157 20.2306 66.3527 20.7514C65.8037 21.2581 65.5293 22.0534 65.5293 23.1372V28.5H62.2356ZM76.8007 28.6689C75.5058 28.6689 74.3656 28.4155 73.3803 27.9088C72.4091 27.4021 71.6561 26.7124 71.1212 25.8397C70.5863 24.9529 70.3189 23.9465 70.3189 22.8205C70.3189 21.6804 70.5793 20.6739 71.1001 19.8013C71.635 18.9145 72.3599 18.2248 73.2748 17.7321C74.1897 17.2254 75.2242 16.9721 76.3784 16.9721C77.4904 16.9721 78.4898 17.2113 79.3766 17.6899C80.2774 18.1544 80.9882 18.83 81.509 19.7168C82.0298 20.5895 82.2902 21.6381 82.2902 22.8627C82.2902 22.9894 82.2832 23.1372 82.2691 23.3061C82.255 23.4609 82.2409 23.6087 82.2269 23.7495H73.0003V21.8282H80.4956L79.2288 22.3982C79.2288 21.807 79.1091 21.2933 78.8698 20.8569C78.6306 20.4206 78.2998 20.0828 77.8775 19.8435C77.4552 19.5901 76.9626 19.4634 76.3996 19.4634C75.8365 19.4634 75.3369 19.5901 74.9005 19.8435C74.4782 20.0828 74.1475 20.4276 73.9082 20.878C73.6689 21.3144 73.5492 21.8352 73.5492 22.4404V22.9472C73.5492 23.5665 73.683 24.1154 73.9504 24.594C74.2319 25.0585 74.619 25.4174 75.1116 25.6708C75.6184 25.9101 76.2095 26.0297 76.8852 26.0297C77.4904 26.0297 78.0183 25.9382 78.4687 25.7553C78.9332 25.5723 79.3554 25.2978 79.7355 24.9318L81.4879 26.832C80.9671 27.4232 80.3126 27.8807 79.5244 28.2044C78.7361 28.5141 77.8282 28.6689 76.8007 28.6689ZM89.3602 28.6689C88.2905 28.6689 87.3263 28.4296 86.4677 27.9511C85.6091 27.4584 84.9264 26.7757 84.4197 25.903C83.9271 25.0304 83.6807 24.0028 83.6807 22.8205C83.6807 21.6241 83.9271 20.5895 84.4197 19.7168C84.9264 18.8441 85.6091 18.1685 86.4677 17.6899C87.3263 17.2113 88.2905 16.9721 89.3602 16.9721C90.3174 16.9721 91.1549 17.1832 91.8728 17.6055C92.5906 18.0277 93.1466 18.6682 93.5407 19.5268C93.9348 20.3854 94.1319 21.4833 94.1319 22.8205C94.1319 24.1436 93.9419 25.2415 93.5618 26.1142C93.1818 26.9728 92.6328 27.6132 91.915 28.0355C91.2112 28.4578 90.3596 28.6689 89.3602 28.6689ZM89.9303 25.9664C90.4652 25.9664 90.9508 25.8397 91.3871 25.5863C91.8235 25.333 92.1683 24.9741 92.4217 24.5096C92.6891 24.031 92.8229 23.468 92.8229 22.8205C92.8229 22.1589 92.6891 21.5959 92.4217 21.1314C92.1683 20.6669 91.8235 20.308 91.3871 20.0546C90.9508 19.8013 90.4652 19.6746 89.9303 19.6746C89.3814 19.6746 88.8887 19.8013 88.4524 20.0546C88.016 20.308 87.6641 20.6669 87.3967 21.1314C87.1433 21.5959 87.0167 22.1589 87.0167 22.8205C87.0167 23.468 87.1433 24.031 87.3967 24.5096C87.6641 24.9741 88.016 25.333 88.4524 25.5863C88.8887 25.8397 89.3814 25.9664 89.9303 25.9664ZM92.9073 28.5V26.1775L92.9707 22.7994L92.7595 19.4423V12.8338H96.0532V28.5H92.9073ZM99.1016 28.5V17.141H102.395V28.5H99.1016ZM100.748 15.5575C100.143 15.5575 99.6506 15.3815 99.2705 15.0296C98.8905 14.6777 98.7005 14.2414 98.7005 13.7206C98.7005 13.1998 98.8905 12.7634 99.2705 12.4116C99.6506 12.0597 100.143 11.8837 100.748 11.8837C101.354 11.8837 101.846 12.0526 102.226 12.3904C102.606 12.7142 102.796 13.1364 102.796 13.6572C102.796 14.2062 102.606 14.6637 102.226 15.0296C101.86 15.3815 101.368 15.5575 100.748 15.5575ZM108.83 19.6746H115.946V22.3349H108.83V19.6746ZM109.084 25.7553H117.128V28.5H105.684V13.7206H116.853V16.4653H109.084V25.7553ZM126.523 28.5V26.2831L126.312 25.7975V21.8282C126.312 21.1244 126.093 20.5754 125.657 20.1813C125.235 19.7872 124.58 19.5901 123.694 19.5901C123.088 19.5901 122.49 19.6887 121.899 19.8857C121.322 20.0687 120.829 20.3221 120.421 20.6458L119.239 18.3444C119.858 17.9081 120.604 17.5703 121.477 17.331C122.349 17.0917 123.236 16.9721 124.137 16.9721C125.868 16.9721 127.212 17.3803 128.17 18.1966C129.127 19.013 129.605 20.2869 129.605 22.0182V28.5H126.523ZM123.06 28.6689C122.173 28.6689 121.413 28.5211 120.78 28.2255C120.146 27.9159 119.661 27.5006 119.323 26.9798C118.985 26.459 118.816 25.8749 118.816 25.2274C118.816 24.5518 118.978 23.9606 119.302 23.4539C119.64 22.9472 120.168 22.553 120.885 22.2715C121.603 21.9759 122.539 21.8282 123.694 21.8282H126.713V23.7495H124.052C123.278 23.7495 122.743 23.8762 122.448 24.1295C122.166 24.3829 122.026 24.6996 122.026 25.0796C122.026 25.5019 122.187 25.8397 122.511 26.0931C122.849 26.3324 123.306 26.452 123.884 26.452C124.432 26.452 124.925 26.3253 125.361 26.072C125.798 25.8045 126.115 25.4174 126.312 24.9107L126.818 26.4309C126.579 27.1628 126.143 27.7188 125.509 28.0988C124.876 28.4789 124.059 28.6689 123.06 28.6689ZM136.408 28.6689C135.437 28.6689 134.501 28.5563 133.6 28.3311C132.713 28.0918 132.009 27.7962 131.488 27.4443L132.586 25.0796C133.107 25.4034 133.719 25.6708 134.423 25.8819C135.141 26.079 135.845 26.1775 136.534 26.1775C137.295 26.1775 137.829 26.086 138.139 25.903C138.463 25.7201 138.625 25.4667 138.625 25.143C138.625 24.8755 138.498 24.6785 138.245 24.5518C138.005 24.411 137.682 24.3055 137.273 24.2351C136.865 24.1647 136.415 24.0943 135.922 24.0239C135.444 23.9536 134.958 23.8621 134.465 23.7495C133.973 23.6228 133.522 23.4398 133.114 23.2005C132.706 22.9612 132.375 22.6375 132.122 22.2293C131.882 21.8211 131.763 21.2933 131.763 20.6458C131.763 19.9279 131.967 19.2945 132.375 18.7456C132.797 18.1966 133.403 17.7673 134.191 17.4577C134.979 17.1339 135.922 16.9721 137.02 16.9721C137.794 16.9721 138.582 17.0565 139.385 17.2254C140.187 17.3943 140.856 17.6407 141.391 17.9644L140.293 20.308C139.744 19.9842 139.188 19.7661 138.625 19.6535C138.076 19.5268 137.541 19.4634 137.02 19.4634C136.288 19.4634 135.753 19.562 135.415 19.759C135.078 19.9561 134.909 20.2095 134.909 20.5191C134.909 20.8006 135.028 21.0118 135.268 21.1525C135.521 21.2933 135.852 21.4059 136.26 21.4903C136.668 21.5748 137.112 21.6522 137.59 21.7226C138.083 21.7789 138.575 21.8704 139.068 21.9971C139.561 22.1237 140.004 22.3067 140.398 22.546C140.806 22.7712 141.137 23.0879 141.391 23.4961C141.644 23.8902 141.771 24.411 141.771 25.0585C141.771 25.7623 141.559 26.3887 141.137 26.9376C140.715 27.4725 140.103 27.8947 139.3 28.2044C138.512 28.5141 137.548 28.6689 136.408 28.6689ZM149.44 28.6689C148.145 28.6689 147.005 28.4155 146.02 27.9088C145.048 27.4021 144.295 26.7124 143.761 25.8397C143.226 24.9529 142.958 23.9465 142.958 22.8205C142.958 21.6804 143.219 20.6739 143.739 19.8013C144.274 18.9145 144.999 18.2248 145.914 17.7321C146.829 17.2254 147.864 16.9721 149.018 16.9721C150.13 16.9721 151.129 17.2113 152.016 17.6899C152.917 18.1544 153.628 18.83 154.148 19.7168C154.669 20.5895 154.93 21.6381 154.93 22.8627C154.93 22.9894 154.923 23.1372 154.908 23.3061C154.894 23.4609 154.88 23.6087 154.866 23.7495H145.64V21.8282H153.135L151.868 22.3982C151.868 21.807 151.748 21.2933 151.509 20.8569C151.27 20.4206 150.939 20.0828 150.517 19.8435C150.095 19.5901 149.602 19.4634 149.039 19.4634C148.476 19.4634 147.976 19.5901 147.54 19.8435C147.118 20.0828 146.787 20.4276 146.548 20.878C146.308 21.3144 146.189 21.8352 146.189 22.4404V22.9472C146.189 23.5665 146.322 24.1154 146.59 24.594C146.871 25.0585 147.258 25.4174 147.751 25.6708C148.258 25.9101 148.849 26.0297 149.524 26.0297C150.13 26.0297 150.658 25.9382 151.108 25.7553C151.573 25.5723 151.995 25.2978 152.375 24.9318L154.127 26.832C153.606 27.4232 152.952 27.8807 152.164 28.2044C151.375 28.5141 150.468 28.6689 149.44 28.6689Z" fill="white"/>
</svg>
